<mxfile host="app.diagrams.net" modified="2022-04-17T10:43:23.805Z" agent="5.0 (Windows NT 10.0; Win64; x64) AppleWebKit/537.36 (KHTML, like Gecko) Chrome/100.0.4896.88 Safari/537.36" etag="6BaVqlHpLLpZcsoThF7e" version="17.4.5" type="github" pages="2">
  <diagram id="nZ7NvAS3yY4Yi7hNIu3f" name="1-系统上下文视图">
    <mxGraphModel dx="1422" dy="762" grid="1" gridSize="10" guides="1" tooltips="1" connect="1" arrows="1" fold="1" page="1" pageScale="1" pageWidth="827" pageHeight="1169" math="0" shadow="0">
      <root>
        <mxCell id="0" />
        <mxCell id="1" parent="0" />
        <mxCell id="OkGG_h0ycKeQ2ej5yEBU-7" style="edgeStyle=orthogonalEdgeStyle;rounded=0;orthogonalLoop=1;jettySize=auto;html=1;exitX=0.25;exitY=0;exitDx=0;exitDy=0;entryX=1;entryY=0.3333333333333333;entryDx=0;entryDy=0;entryPerimeter=0;" edge="1" parent="1" source="OkGG_h0ycKeQ2ej5yEBU-2" target="OkGG_h0ycKeQ2ej5yEBU-5">
          <mxGeometry relative="1" as="geometry" />
        </mxCell>
        <mxCell id="OkGG_h0ycKeQ2ej5yEBU-13" value="商家购买礼品" style="edgeLabel;html=1;align=center;verticalAlign=middle;resizable=0;points=[];" vertex="1" connectable="0" parent="OkGG_h0ycKeQ2ej5yEBU-7">
          <mxGeometry x="-0.3527" relative="1" as="geometry">
            <mxPoint as="offset" />
          </mxGeometry>
        </mxCell>
        <mxCell id="OkGG_h0ycKeQ2ej5yEBU-20" value="礼品库存和状态" style="edgeStyle=orthogonalEdgeStyle;rounded=0;orthogonalLoop=1;jettySize=auto;html=1;exitX=1;exitY=0.5;exitDx=0;exitDy=0;entryX=0.5;entryY=0.5;entryDx=0;entryDy=0;entryPerimeter=0;" edge="1" parent="1" source="OkGG_h0ycKeQ2ej5yEBU-2" target="OkGG_h0ycKeQ2ej5yEBU-19">
          <mxGeometry relative="1" as="geometry" />
        </mxCell>
        <mxCell id="C_pSO6XXfCaZRboAlrJY-3" style="edgeStyle=orthogonalEdgeStyle;rounded=0;orthogonalLoop=1;jettySize=auto;html=1;exitX=0.5;exitY=1;exitDx=0;exitDy=0;entryX=0.5;entryY=0;entryDx=0;entryDy=0;" edge="1" parent="1" source="OkGG_h0ycKeQ2ej5yEBU-2" target="C_pSO6XXfCaZRboAlrJY-2">
          <mxGeometry relative="1" as="geometry" />
        </mxCell>
        <mxCell id="C_pSO6XXfCaZRboAlrJY-4" value="调用快递平台接口生成快递单" style="edgeLabel;html=1;align=center;verticalAlign=middle;resizable=0;points=[];" vertex="1" connectable="0" parent="C_pSO6XXfCaZRboAlrJY-3">
          <mxGeometry x="-0.2167" y="-2" relative="1" as="geometry">
            <mxPoint as="offset" />
          </mxGeometry>
        </mxCell>
        <mxCell id="OkGG_h0ycKeQ2ej5yEBU-2" value="智能云仓" style="rounded=1;whiteSpace=wrap;html=1;fillColor=#1ba1e2;fontColor=#ffffff;strokeColor=#006EAF;" vertex="1" parent="1">
          <mxGeometry x="320" y="280" width="120" height="60" as="geometry" />
        </mxCell>
        <mxCell id="OkGG_h0ycKeQ2ej5yEBU-4" value="订单同步" style="edgeStyle=orthogonalEdgeStyle;rounded=0;orthogonalLoop=1;jettySize=auto;html=1;exitX=1;exitY=0.5;exitDx=0;exitDy=0;entryX=0;entryY=0.5;entryDx=0;entryDy=0;" edge="1" parent="1" source="OkGG_h0ycKeQ2ej5yEBU-3" target="OkGG_h0ycKeQ2ej5yEBU-2">
          <mxGeometry relative="1" as="geometry" />
        </mxCell>
        <mxCell id="OkGG_h0ycKeQ2ej5yEBU-3" value="电商平台" style="rounded=1;whiteSpace=wrap;html=1;" vertex="1" parent="1">
          <mxGeometry x="120" y="280" width="120" height="60" as="geometry" />
        </mxCell>
        <mxCell id="OkGG_h0ycKeQ2ej5yEBU-6" value="" style="edgeStyle=orthogonalEdgeStyle;rounded=0;orthogonalLoop=1;jettySize=auto;html=1;" edge="1" parent="1" source="OkGG_h0ycKeQ2ej5yEBU-5" target="OkGG_h0ycKeQ2ej5yEBU-3">
          <mxGeometry relative="1" as="geometry" />
        </mxCell>
        <mxCell id="OkGG_h0ycKeQ2ej5yEBU-5" value="商家" style="shape=umlActor;verticalLabelPosition=bottom;verticalAlign=top;html=1;outlineConnect=0;" vertex="1" parent="1">
          <mxGeometry x="165" y="140" width="30" height="60" as="geometry" />
        </mxCell>
        <mxCell id="OkGG_h0ycKeQ2ej5yEBU-10" style="edgeStyle=orthogonalEdgeStyle;rounded=0;orthogonalLoop=1;jettySize=auto;html=1;exitX=0;exitY=0.5;exitDx=0;exitDy=0;entryX=1;entryY=0.3333333333333333;entryDx=0;entryDy=0;entryPerimeter=0;" edge="1" parent="1" source="OkGG_h0ycKeQ2ej5yEBU-8" target="OkGG_h0ycKeQ2ej5yEBU-9">
          <mxGeometry relative="1" as="geometry" />
        </mxCell>
        <mxCell id="OkGG_h0ycKeQ2ej5yEBU-8" value="供应商系统" style="rounded=1;whiteSpace=wrap;html=1;" vertex="1" parent="1">
          <mxGeometry x="560" y="130" width="120" height="60" as="geometry" />
        </mxCell>
        <mxCell id="OkGG_h0ycKeQ2ej5yEBU-11" value="供应商礼品入库" style="edgeStyle=orthogonalEdgeStyle;rounded=0;orthogonalLoop=1;jettySize=auto;html=1;entryX=0.75;entryY=0;entryDx=0;entryDy=0;" edge="1" parent="1" source="OkGG_h0ycKeQ2ej5yEBU-9" target="OkGG_h0ycKeQ2ej5yEBU-2">
          <mxGeometry relative="1" as="geometry">
            <Array as="points">
              <mxPoint x="410" y="240" />
              <mxPoint x="410" y="240" />
            </Array>
          </mxGeometry>
        </mxCell>
        <mxCell id="OkGG_h0ycKeQ2ej5yEBU-9" value="供应商" style="shape=umlActor;verticalLabelPosition=bottom;verticalAlign=top;html=1;outlineConnect=0;" vertex="1" parent="1">
          <mxGeometry x="395" y="140" width="30" height="60" as="geometry" />
        </mxCell>
        <mxCell id="OkGG_h0ycKeQ2ej5yEBU-17" value="派单" style="edgeStyle=orthogonalEdgeStyle;rounded=0;orthogonalLoop=1;jettySize=auto;html=1;exitX=0.75;exitY=1;exitDx=0;exitDy=0;entryX=0.5;entryY=0.5;entryDx=0;entryDy=0;entryPerimeter=0;" edge="1" parent="1" source="OkGG_h0ycKeQ2ej5yEBU-2" target="OkGG_h0ycKeQ2ej5yEBU-16">
          <mxGeometry relative="1" as="geometry">
            <mxPoint x="440" y="430" as="sourcePoint" />
            <Array as="points">
              <mxPoint x="410" y="430" />
            </Array>
          </mxGeometry>
        </mxCell>
        <mxCell id="C_pSO6XXfCaZRboAlrJY-6" value="分拣快递" style="edgeStyle=orthogonalEdgeStyle;rounded=0;orthogonalLoop=1;jettySize=auto;html=1;exitX=0.5;exitY=0.5;exitDx=0;exitDy=0;exitPerimeter=0;entryX=0;entryY=0.5;entryDx=0;entryDy=0;" edge="1" parent="1" source="OkGG_h0ycKeQ2ej5yEBU-16" target="C_pSO6XXfCaZRboAlrJY-5">
          <mxGeometry relative="1" as="geometry" />
        </mxCell>
        <mxCell id="C_pSO6XXfCaZRboAlrJY-10" style="edgeStyle=orthogonalEdgeStyle;rounded=0;orthogonalLoop=1;jettySize=auto;html=1;exitX=1;exitY=0.3333333333333333;exitDx=0;exitDy=0;exitPerimeter=0;entryX=0;entryY=0.75;entryDx=0;entryDy=0;" edge="1" parent="1" source="OkGG_h0ycKeQ2ej5yEBU-16" target="OkGG_h0ycKeQ2ej5yEBU-18">
          <mxGeometry relative="1" as="geometry" />
        </mxCell>
        <mxCell id="C_pSO6XXfCaZRboAlrJY-11" value="根据订单取礼品" style="edgeLabel;html=1;align=center;verticalAlign=middle;resizable=0;points=[];" vertex="1" connectable="0" parent="C_pSO6XXfCaZRboAlrJY-10">
          <mxGeometry x="0.1022" relative="1" as="geometry">
            <mxPoint as="offset" />
          </mxGeometry>
        </mxCell>
        <mxCell id="OkGG_h0ycKeQ2ej5yEBU-16" value="分拣员" style="shape=umlActor;verticalLabelPosition=bottom;verticalAlign=top;html=1;outlineConnect=0;" vertex="1" parent="1">
          <mxGeometry x="520" y="400" width="30" height="60" as="geometry" />
        </mxCell>
        <mxCell id="OkGG_h0ycKeQ2ej5yEBU-18" value="仓库货架" style="rounded=1;whiteSpace=wrap;html=1;fillColor=#cce5ff;strokeColor=#36393d;" vertex="1" parent="1">
          <mxGeometry x="680" y="280" width="120" height="60" as="geometry" />
        </mxCell>
        <mxCell id="OkGG_h0ycKeQ2ej5yEBU-21" value="存放礼品" style="edgeStyle=orthogonalEdgeStyle;rounded=0;orthogonalLoop=1;jettySize=auto;html=1;exitX=0.5;exitY=0.5;exitDx=0;exitDy=0;exitPerimeter=0;" edge="1" parent="1" source="OkGG_h0ycKeQ2ej5yEBU-19" target="OkGG_h0ycKeQ2ej5yEBU-18">
          <mxGeometry relative="1" as="geometry" />
        </mxCell>
        <mxCell id="OkGG_h0ycKeQ2ej5yEBU-19" value="仓管" style="shape=umlActor;verticalLabelPosition=bottom;verticalAlign=top;html=1;outlineConnect=0;" vertex="1" parent="1">
          <mxGeometry x="520" y="280" width="30" height="60" as="geometry" />
        </mxCell>
        <mxCell id="C_pSO6XXfCaZRboAlrJY-2" value="快递平台" style="rounded=1;whiteSpace=wrap;html=1;fillColor=#0050ef;fontColor=#ffffff;strokeColor=#001DBC;" vertex="1" parent="1">
          <mxGeometry x="320" y="460" width="120" height="60" as="geometry" />
        </mxCell>
        <mxCell id="C_pSO6XXfCaZRboAlrJY-5" value="待发货架" style="rounded=1;whiteSpace=wrap;html=1;fillColor=#cce5ff;strokeColor=#36393d;" vertex="1" parent="1">
          <mxGeometry x="680" y="400" width="120" height="60" as="geometry" />
        </mxCell>
      </root>
    </mxGraphModel>
  </diagram>
  <diagram id="eNS8EoFaluiwnUeZp0PB" name="3.1-组件">
    <mxGraphModel dx="1422" dy="762" grid="1" gridSize="10" guides="1" tooltips="1" connect="1" arrows="1" fold="1" page="1" pageScale="1" pageWidth="827" pageHeight="1169" math="0" shadow="0">
      <root>
        <mxCell id="0" />
        <mxCell id="1" parent="0" />
        <mxCell id="bz5giE-aEPIMnW4V5SGV-1" value="Order System" style="rounded=0;whiteSpace=wrap;html=1;dashed=1;verticalAlign=top;align=left;" vertex="1" parent="1">
          <mxGeometry x="120" y="280" width="600" height="320" as="geometry" />
        </mxCell>
        <mxCell id="bz5giE-aEPIMnW4V5SGV-8" style="edgeStyle=orthogonalEdgeStyle;rounded=0;orthogonalLoop=1;jettySize=auto;html=1;exitX=0.5;exitY=1;exitDx=0;exitDy=0;" edge="1" parent="1" source="bz5giE-aEPIMnW4V5SGV-2" target="bz5giE-aEPIMnW4V5SGV-3">
          <mxGeometry relative="1" as="geometry" />
        </mxCell>
        <mxCell id="bz5giE-aEPIMnW4V5SGV-9" style="edgeStyle=orthogonalEdgeStyle;rounded=0;orthogonalLoop=1;jettySize=auto;html=1;exitX=1;exitY=0.5;exitDx=0;exitDy=0;entryX=0;entryY=0.5;entryDx=0;entryDy=0;" edge="1" parent="1" source="bz5giE-aEPIMnW4V5SGV-2" target="bz5giE-aEPIMnW4V5SGV-4">
          <mxGeometry relative="1" as="geometry" />
        </mxCell>
        <mxCell id="bz5giE-aEPIMnW4V5SGV-2" value="Ec Controller&lt;br&gt;[Component:Restful]" style="rounded=1;whiteSpace=wrap;html=1;fillColor=#1ba1e2;fontColor=#ffffff;strokeColor=#006EAF;" vertex="1" parent="1">
          <mxGeometry x="140" y="310" width="160" height="90" as="geometry" />
        </mxCell>
        <mxCell id="bz5giE-aEPIMnW4V5SGV-10" style="edgeStyle=orthogonalEdgeStyle;rounded=0;orthogonalLoop=1;jettySize=auto;html=1;exitX=1;exitY=0.5;exitDx=0;exitDy=0;" edge="1" parent="1" source="bz5giE-aEPIMnW4V5SGV-3" target="bz5giE-aEPIMnW4V5SGV-5">
          <mxGeometry relative="1" as="geometry" />
        </mxCell>
        <mxCell id="bz5giE-aEPIMnW4V5SGV-12" style="edgeStyle=orthogonalEdgeStyle;rounded=0;orthogonalLoop=1;jettySize=auto;html=1;exitX=0.5;exitY=1;exitDx=0;exitDy=0;entryX=0.5;entryY=0;entryDx=0;entryDy=0;entryPerimeter=0;" edge="1" parent="1" source="bz5giE-aEPIMnW4V5SGV-3" target="bz5giE-aEPIMnW4V5SGV-11">
          <mxGeometry relative="1" as="geometry" />
        </mxCell>
        <mxCell id="bz5giE-aEPIMnW4V5SGV-3" value="Ec Component&lt;br&gt;[Component:Spring Beans]" style="rounded=1;whiteSpace=wrap;html=1;fillColor=#1ba1e2;fontColor=#ffffff;strokeColor=#006EAF;" vertex="1" parent="1">
          <mxGeometry x="140" y="450" width="160" height="90" as="geometry" />
        </mxCell>
        <mxCell id="bz5giE-aEPIMnW4V5SGV-4" value="Merchant Service&lt;br&gt;[Component:Dubbo Service]" style="rounded=1;whiteSpace=wrap;html=1;fillColor=#1ba1e2;fontColor=#ffffff;strokeColor=#006EAF;" vertex="1" parent="1">
          <mxGeometry x="440" y="310" width="160" height="90" as="geometry" />
        </mxCell>
        <mxCell id="bz5giE-aEPIMnW4V5SGV-5" value="Express Adapter&lt;br&gt;[Component:Spring Beans]" style="rounded=1;whiteSpace=wrap;html=1;fillColor=#1ba1e2;fontColor=#ffffff;strokeColor=#006EAF;" vertex="1" parent="1">
          <mxGeometry x="440" y="450" width="160" height="90" as="geometry" />
        </mxCell>
        <mxCell id="bz5giE-aEPIMnW4V5SGV-7" value="" style="edgeStyle=orthogonalEdgeStyle;rounded=0;orthogonalLoop=1;jettySize=auto;html=1;" edge="1" parent="1" source="bz5giE-aEPIMnW4V5SGV-6" target="bz5giE-aEPIMnW4V5SGV-2">
          <mxGeometry relative="1" as="geometry" />
        </mxCell>
        <mxCell id="bz5giE-aEPIMnW4V5SGV-6" value="Ec Order&lt;br&gt;[Component:Restful]" style="rounded=1;whiteSpace=wrap;html=1;fillColor=#1ba1e2;fontColor=#ffffff;strokeColor=#006EAF;" vertex="1" parent="1">
          <mxGeometry x="140" y="130" width="160" height="90" as="geometry" />
        </mxCell>
        <mxCell id="bz5giE-aEPIMnW4V5SGV-11" value="" style="shape=cylinder3;whiteSpace=wrap;html=1;boundedLbl=1;backgroundOutline=1;size=15;fillColor=#1ba1e2;fontColor=#ffffff;strokeColor=#006EAF;" vertex="1" parent="1">
          <mxGeometry x="150" y="640" width="140" height="80" as="geometry" />
        </mxCell>
      </root>
    </mxGraphModel>
  </diagram>
</mxfile>
